<?xml version="1.0" encoding="utf-8"?>
<svg version="1.0" width="100px" height="100px" viewBox="0 0 84 110" preserveAspectRatio="xMidYMid meet" xmlns="http://www.w3.org/2000/svg">
  <g transform="matrix(0.007364, 0, 0, -0.007364, -13.449565, 108.757164)" fill="#000000" stroke="none">
    <path d="M 10517.922 6178.554 C 10526.922 6169.554 10532.668 5127.486 10513.922 5116.554 C 10486.922 5105.554 6483.448 5114.259 6459.922 5120.554 C 6455.092 5121.846 7166.823 6181.315 7182.922 6190.554 C 7203.017 6202.086 10508.922 6187.554 10517.922 6178.554 Z" style="fill: none; stroke: rgb(0, 0, 0); stroke-width: 200px; stroke-linecap: round;"/>
    <path d="M 6589.758 14083.242 C 6550.526 14049.716 2539.973 8078.575 2520 8043 C 2496.9 8001.856 2504.457 6205.411 2520 6190 C 2559.781 6150.558 4821 6186 4824 6181 C 4827 6176 4159.746 5210.47 4135 5145 C 4108.516 5074.933 4129 3207 4133 3198 C 4140 3181 10490.772 3230.305 10520 3180 C 10554.831 3120.051 10506.826 588.876 10525 545 C 10547.898 489.719 12405.032 507.38 12480 540 C 12480.696 578.338 12519.724 9603.32 12475.295 9646.969 C 12461.483 9660.539 10583.367 9682.541 10542 9634 C 10511.298 9597.974 10548.982 8064.613 10521 8035 C 10492.062 8004.375 8419 8032 8412 8035 C 8400 8039 10508.117 11186.023 10508.117 11190.023 C 10508.117 11192.023 8265.844 11231.118 8204 11200 C 8159.177 11177.447 6099 8067 6082 8048 C 6068 8031 4851 8033 4847 8036 C 4844 8039 8901.729 14055.198 8888.234 14068.23 C 8873.321 14082.632 6685.042 14099.242 6589.758 14083.242 Z" style="fill: none; stroke: rgb(0, 0, 0); stroke-width: 200px; stroke-linecap: round;"/>
  </g>
</svg>