<?xml version="1.0" encoding="utf-8"?>
<svg preserveAspectRatio="none" viewBox="1.038 0.854 159.707 136.554" xmlns="http://www.w3.org/2000/svg" xmlns:bx="https://boxy-svg.com">
  <defs>
    <bx:grid x="0.877" y="0.782" width="5" height="5"/>
  </defs>
  <path style="stroke: rgb(0, 0, 0); fill-rule: nonzero; fill: none; stroke-width: 3px; stroke-linecap: round;" d="M 26.762 74.729 C 26.762 74.729 4.393 73.723 3.225 43.348 C 3.225 43.348 2.56 4.406 43.27 2.976 C 43.27 2.976 80.071 2.537 69.786 36.319 C 69.786 36.319 83.314 34.685 92.304 36.973 C 92.304 36.973 82.788 4.457 115.513 2.813 C 115.513 2.813 157.005 0.688 158.662 41.713 C 158.662 41.713 160.94 72.643 134.473 74.729 C 134.473 74.729 131.204 98.755 105.87 109.707 C 105.87 110.071 104.486 138.705 92.227 134.558 C 92.227 134.558 90.036 120.025 89.525 120.004 C 88.741 119.971 87.593 133.438 86.625 134.72 C 85.657 136.002 76.74 135.79 75.269 134.646 C 73.798 133.502 73.683 120.103 73.029 120.103 C 72.375 120.103 69.444 134.584 69.444 134.584 C 69.444 134.584 58.784 138.752 56.018 109.707 C 56.018 109.707 33.852 104.821 26.762 74.729 Z"/>
  <path style="stroke: rgb(0, 0, 0); fill: none; stroke-linejoin: round; stroke-width: 3px; stroke-linecap: round;" d="M 40.07 14.083 C 40.07 14.083 71.153 22.691 43.577 53.934"/>
  <path style="stroke: rgb(0, 0, 0); fill: none; stroke-linejoin: round; stroke-width: 3px; stroke-linecap: round;" d="M 107.833 53.775 C 107.833 53.775 138.916 45.167 111.34 13.924" transform="matrix(-1, 0, 0, -1, 230.581482, 67.699001)"/>
  <path style="fill: none; stroke-linejoin: round; stroke-width: 3px; stroke: rgb(0, 0, 0); stroke-linecap: round;" d="M 52.362 60.628 L 73.563 84.378 C 73.563 84.378 71.083 86.773 63.183 86.53 C 52.352 86.197 39.023 76.181 52.362 60.628 Z"/>
  <path style="fill: none; stroke-linejoin: round; stroke-width: 3px; stroke: rgb(0, 0, 0); stroke-linecap: round;" d="M 93.676 86.701 L 114.877 62.951 C 114.877 62.951 112.397 60.556 104.497 60.799 C 93.666 61.132 80.337 71.148 93.676 86.701 Z" transform="matrix(-1, 0, 0, -1, 202.960724, 147.482681)"/>
</svg>