<?xml version="1.0" standalone="no"?>
<!DOCTYPE svg PUBLIC "-//W3C//DTD SVG 20010904//EN"
 "http://www.w3.org/TR/2001/REC-SVG-20010904/DTD/svg10.dtd">
<svg version="1.0" xmlns="http://www.w3.org/2000/svg"
 width="350.000000pt" height="211.000000pt" viewBox="0 0 350.000000 211.000000"
 preserveAspectRatio="xMidYMid meet">

<g transform="translate(0.000000,211.000000) scale(0.100000,-0.100000)"
fill="#000000" stroke="none">
<path d="M165 2076 c-27 -12 -69 -44 -92 -69 -77 -83 -74 -46 -71 -983 l3
-829 23 -47 c30 -61 88 -110 153 -131 67 -22 97 -21 162 3 74 28 130 79 166
152 l31 61 0 484 c0 432 2 484 16 490 11 4 87 -65 262 -240 155 -153 264 -254
292 -268 35 -18 61 -24 120 -24 124 0 121 -3 422 397 143 192 267 348 273 346
13 -3 315 -354 315 -366 0 -4 -51 -74 -112 -157 -205 -275 -349 -479 -375
-533 -68 -140 -18 -271 128 -329 41 -17 98 -18 739 -18 693 0 695 0 735 22
189 102 189 351 1 439 -51 24 -52 24 -459 24 -351 0 -408 2 -413 15 -4 9 22
48 69 102 259 302 282 338 281 435 -1 89 -42 158 -210 351 -80 93 -143 174
-141 180 3 9 113 13 418 17 408 5 415 5 461 28 149 73 184 274 70 396 -15 16
-49 39 -77 52 l-50 24 -709 0 c-509 0 -720 -3 -747 -12 -22 -6 -57 -26 -78
-44 -21 -19 -153 -190 -292 -380 -140 -191 -260 -349 -267 -352 -8 -3 -166
148 -386 367 -417 414 -426 421 -546 421 -47 0 -79 -7 -115 -24z"/>
</g>
</svg>
